<svg width="537" height="59" viewBox="0 0 537 59" fill="none" xmlns="http://www.w3.org/2000/svg">
<path d="M0.424 47L19.624 0.279999H29.928L34.344 47H26.408L25.64 35.672H13.224L8.872 47H0.424ZM15.656 29.144H25.192L24.36 16.6C24.232 14.5093 24.104 12.632 23.976 10.968C23.8907 9.26133 23.848 8.024 23.848 7.256C23.592 8.024 23.1653 9.26133 22.568 10.968C22.0133 12.632 21.352 14.488 20.584 16.536L15.656 29.144ZM55.439 47.64C51.0017 47.64 47.6523 46.5093 45.391 44.248C43.1723 41.944 42.2977 38.8293 42.767 34.904H50.767C50.5537 36.7387 50.959 38.168 51.983 39.192C53.007 40.1733 54.5217 40.664 56.527 40.664C58.703 40.664 60.4737 40.0667 61.839 38.872C63.2043 37.6773 64.0577 35.992 64.399 33.816L64.655 32.408H53.583L54.607 26.008H65.679L65.807 24.92C66.191 22.744 65.871 21.08 64.847 19.928C63.8657 18.7333 62.287 18.136 60.111 18.136C58.1483 18.136 56.4843 18.648 55.119 19.672C53.7963 20.6533 52.9217 22.0613 52.495 23.896H44.495C45.263 19.9707 47.1403 16.8773 50.127 14.616C53.1137 12.312 56.8257 11.16 61.263 11.16C64.2923 11.16 66.8097 11.736 68.815 12.888C70.8203 13.9973 72.271 15.576 73.167 17.624C74.063 19.672 74.2763 22.1253 73.807 24.984L72.399 33.816C71.9723 36.632 70.991 39.0853 69.455 41.176C67.919 43.224 65.9563 44.824 63.567 45.976C61.1777 47.0853 58.4683 47.64 55.439 47.64ZM78.006 58.52L85.43 11.8H93.238L92.15 18.52H93.942L91.894 20.376C92.3207 17.5173 93.5153 15.2773 95.478 13.656C97.4833 11.992 99.9367 11.16 102.838 11.16C106.379 11.16 109.003 12.376 110.71 14.808C112.417 17.24 112.95 20.504 112.31 24.6L110.774 34.136C110.347 36.8667 109.494 39.256 108.214 41.304C106.934 43.3093 105.334 44.8667 103.414 45.976C101.537 47.0853 99.4033 47.64 97.014 47.64C94.1127 47.64 91.9367 46.8293 90.486 45.208C89.078 43.544 88.5873 41.2827 89.014 38.424L90.55 40.28H88.694L87.606 48.664L86.006 58.52H78.006ZM95.35 40.728C97.398 40.728 99.062 40.1307 100.342 38.936C101.665 37.7413 102.497 36.0347 102.838 33.816L104.246 24.984C104.587 22.7653 104.289 21.0587 103.35 19.864C102.454 18.6693 100.961 18.072 98.87 18.072C96.9073 18.072 95.2433 18.6907 93.878 19.928C92.5553 21.1227 91.702 22.808 91.318 24.984L89.91 33.816C89.5687 35.992 89.8887 37.6987 90.87 38.936C91.8513 40.1307 93.3447 40.728 95.35 40.728ZM132.381 47.64C129.394 47.64 126.898 47.0853 124.893 45.976C122.888 44.824 121.458 43.224 120.605 41.176C119.752 39.0853 119.538 36.632 119.965 33.816L121.373 24.984C121.842 22.168 122.824 19.736 124.317 17.688C125.853 15.5973 127.794 13.9973 130.141 12.888C132.53 11.736 135.218 11.16 138.205 11.16C141.234 11.16 143.73 11.736 145.693 12.888C147.698 13.9973 149.128 15.5973 149.981 17.688C150.877 19.736 151.09 22.1467 150.621 24.92L149.213 33.816C148.786 36.632 147.805 39.0853 146.269 41.176C144.733 43.224 142.792 44.824 140.445 45.976C138.098 47.0853 135.41 47.64 132.381 47.64ZM133.533 40.664C135.666 40.664 137.394 40.088 138.717 38.936C140.04 37.7413 140.872 36.0347 141.213 33.816L142.621 24.984C142.962 22.7653 142.664 21.08 141.725 19.928C140.786 18.7333 139.229 18.136 137.053 18.136C134.962 18.136 133.256 18.7333 131.933 19.928C130.61 21.08 129.757 22.7653 129.373 24.984L127.965 33.816C127.624 36.0347 127.922 37.7413 128.861 38.936C129.842 40.088 131.4 40.664 133.533 40.664ZM166.852 47L171.332 19.16H159.236L160.388 11.8H192.516L191.364 19.16H179.332L174.916 47H166.852ZM209.195 47.64C206.208 47.64 203.712 47.064 201.707 45.912C199.702 44.76 198.251 43.16 197.355 41.112C196.502 39.0213 196.288 36.5893 196.715 33.816L198.123 24.984C198.592 22.2107 199.595 19.8 201.131 17.752C202.667 15.6613 204.608 14.04 206.955 12.888C209.344 11.736 212.032 11.16 215.019 11.16C217.963 11.16 220.438 11.736 222.443 12.888C224.448 14.04 225.878 15.6613 226.731 17.752C227.627 19.8 227.84 22.2107 227.371 24.984L226.347 31.32H204.843L204.395 33.816C204.054 36.2907 204.352 38.168 205.291 39.448C206.272 40.6853 207.936 41.304 210.283 41.304C212.075 41.304 213.547 41.0053 214.699 40.408C215.894 39.768 216.726 38.8507 217.195 37.656H225.131C224.406 39.6613 223.254 41.4107 221.675 42.904C220.139 44.3973 218.304 45.5707 216.171 46.424C214.038 47.2347 211.712 47.64 209.195 47.64ZM219.371 26.84L219.691 24.92C220.075 22.488 219.798 20.632 218.859 19.352C217.92 18.0293 216.299 17.368 213.995 17.368C211.691 17.368 209.835 18.0293 208.427 19.352C207.062 20.6747 206.187 22.552 205.803 24.984L205.611 26.328L220.075 26.2L219.371 26.84ZM230.866 47L245.906 28.632L237.266 11.8H246.098L250.066 20.44C250.322 20.952 250.557 21.528 250.77 22.168C250.983 22.808 251.133 23.32 251.218 23.704C251.431 23.32 251.73 22.808 252.114 22.168C252.498 21.528 252.882 20.952 253.266 20.44L259.922 11.8H269.202L255.186 29.016L264.402 47H255.506L251.09 37.336C250.834 36.7813 250.578 36.184 250.322 35.544C250.066 34.904 249.895 34.392 249.81 34.008C249.597 34.392 249.298 34.9253 248.914 35.608C248.53 36.248 248.125 36.824 247.698 37.336L240.082 47H230.866ZM310.112 47L317.536 0.279999H333.088C336.203 0.279999 338.827 0.877332 340.96 2.072C343.093 3.26667 344.629 4.952 345.568 7.128C346.507 9.26133 346.741 11.7787 346.272 14.68C345.803 17.5387 344.757 20.056 343.136 22.232C341.515 24.408 339.445 26.0933 336.928 27.288C334.453 28.4827 331.637 29.08 328.48 29.08H320.928L318.112 47H310.112ZM322.08 21.848H329.632C331.893 21.848 333.792 21.208 335.328 19.928C336.864 18.6053 337.824 16.856 338.208 14.68C338.549 12.4613 338.144 10.712 336.992 9.432C335.84 8.152 334.155 7.512 331.936 7.512H324.384L322.08 21.848ZM362.631 47.64C359.644 47.64 357.148 47.0853 355.143 45.976C353.138 44.824 351.708 43.224 350.855 41.176C350.002 39.0853 349.788 36.632 350.215 33.816L351.623 24.984C352.092 22.168 353.074 19.736 354.567 17.688C356.103 15.5973 358.044 13.9973 360.391 12.888C362.78 11.736 365.468 11.16 368.455 11.16C371.484 11.16 373.98 11.736 375.943 12.888C377.948 13.9973 379.378 15.5973 380.231 17.688C381.127 19.736 381.34 22.1467 380.871 24.92L379.463 33.816C379.036 36.632 378.055 39.0853 376.519 41.176C374.983 43.224 373.042 44.824 370.695 45.976C368.348 47.0853 365.66 47.64 362.631 47.64ZM363.783 40.664C365.916 40.664 367.644 40.088 368.967 38.936C370.29 37.7413 371.122 36.0347 371.463 33.816L372.871 24.984C373.212 22.7653 372.914 21.08 371.975 19.928C371.036 18.7333 369.479 18.136 367.303 18.136C365.212 18.136 363.506 18.7333 362.183 19.928C360.86 21.08 360.007 22.7653 359.623 24.984L358.215 33.816C357.874 36.0347 358.172 37.7413 359.111 38.936C360.092 40.088 361.65 40.664 363.783 40.664ZM401.134 47.64C398.147 47.64 395.63 47.0853 393.582 45.976C391.534 44.824 390.062 43.224 389.166 41.176C388.313 39.0853 388.099 36.632 388.526 33.816L389.934 24.984C390.403 22.1253 391.406 19.672 392.942 17.624C394.478 15.576 396.441 13.9973 398.83 12.888C401.262 11.736 403.971 11.16 406.958 11.16C411.395 11.16 414.745 12.312 417.006 14.616C419.31 16.8773 420.227 19.9707 419.758 23.896H411.758C411.886 22.0613 411.438 20.6533 410.414 19.672C409.39 18.648 407.875 18.136 405.87 18.136C403.694 18.136 401.923 18.7333 400.558 19.928C399.193 21.08 398.339 22.744 397.998 24.92L396.526 33.816C396.185 35.992 396.505 37.6773 397.486 38.872C398.51 40.0667 400.11 40.664 402.286 40.664C404.291 40.664 405.955 40.1733 407.278 39.192C408.643 38.168 409.539 36.7387 409.966 34.904H418.03C417.219 38.8293 415.299 41.944 412.27 44.248C409.283 46.5093 405.571 47.64 401.134 47.64ZM439.509 47.64C436.522 47.64 434.005 47.0853 431.957 45.976C429.909 44.824 428.437 43.224 427.541 41.176C426.688 39.0853 426.474 36.632 426.901 33.816L428.309 24.984C428.778 22.1253 429.781 19.672 431.317 17.624C432.853 15.576 434.816 13.9973 437.205 12.888C439.637 11.736 442.346 11.16 445.333 11.16C449.77 11.16 453.12 12.312 455.381 14.616C457.685 16.8773 458.602 19.9707 458.133 23.896H450.133C450.261 22.0613 449.813 20.6533 448.789 19.672C447.765 18.648 446.25 18.136 444.245 18.136C442.069 18.136 440.298 18.7333 438.933 19.928C437.568 21.08 436.714 22.744 436.373 24.92L434.901 33.816C434.56 35.992 434.88 37.6773 435.861 38.872C436.885 40.0667 438.485 40.664 440.661 40.664C442.666 40.664 444.33 40.1733 445.653 39.192C447.018 38.168 447.914 36.7387 448.341 34.904H456.405C455.594 38.8293 453.674 41.944 450.645 44.248C447.658 46.5093 443.946 47.64 439.509 47.64ZM474.812 47.64C471.399 47.64 468.817 46.488 467.068 44.184C465.361 41.88 464.828 38.7867 465.468 34.904L469.116 11.8H477.116L473.596 34.072C473.255 36.2053 473.553 37.848 474.492 39C475.431 40.152 476.881 40.728 478.844 40.728C480.849 40.728 482.492 40.1307 483.772 38.936C485.095 37.7413 485.948 36.0347 486.332 33.816L489.788 11.8H497.788L492.22 47H484.412L485.5 40.28H483.324L485.756 38.424C485.329 41.2827 484.135 43.544 482.172 45.208C480.209 46.8293 477.756 47.64 474.812 47.64ZM500.515 47L513.443 31.384L513.571 34.776C510.328 34.392 507.918 33.2187 506.339 31.256C504.76 29.2507 504.227 26.712 504.739 23.64C505.336 19.928 507.022 17.0267 509.795 14.936C512.611 12.8453 516.195 11.8 520.547 11.8H536.035L530.467 47H522.531L524.451 35.032H518.755L509.091 47H500.515ZM518.179 28.632H525.475L527.075 18.392H519.779C517.859 18.392 516.259 18.84 514.979 19.736C513.742 20.632 513.016 21.912 512.803 23.576C512.547 25.1547 512.888 26.392 513.827 27.288C514.766 28.184 516.216 28.632 518.179 28.632Z" fill="white"/>
</svg>
